<?xml version="1.0" encoding="UTF-8"?>
<svg id="Capa_1" data-name="Capa 1" xmlns="http://www.w3.org/2000/svg" viewBox="0 0 214.5 41.9">
  <g>
    <path d="M34.96,36.96c-3.44,2.86-8.33,4.29-14.68,4.29s-11.24-1.43-14.71-4.29C2.12,34.1.39,29.94.39,24.49V.65h12.82v23.67c0,2.24.6,4.03,1.8,5.37,1.2,1.33,2.94,2,5.22,2s4.03-.68,5.25-2.03c1.22-1.35,1.83-3.13,1.83-5.34V.65h12.82v23.84c0,5.45-1.72,9.61-5.16,12.47Z"/>
    <path d="M49.29,40.56V.65h12.82v39.91h-12.82Z"/>
    <path d="M94.25,10.86v29.7h-12.82V10.86h-13.11V.65h38.98v10.21h-13.05Z"/>
  </g>
  <g>
    <g>
      <path d="M140.43,12.05c-.53,0-.99-.08-1.37-.26-.38-.17-.68-.44-.88-.81-.2-.37-.31-.84-.31-1.42v-3.89h.87v3.99c0,.55.15.96.44,1.23s.71.41,1.25.41.97-.14,1.27-.41c.3-.27.46-.69.46-1.23v-3.99h.86v3.89c0,.58-.1,1.05-.31,1.42s-.5.64-.89.81c-.39.17-.85.26-1.38.26Z"/>
      <path d="M144.57,11.94v-6.27h.84l3.04,4.13s.07.09.12.16c.05.07.1.14.15.21.05.07.09.13.12.19h.04v-4.7h.85v6.27h-.8l-3.08-4.2c-.04-.07-.1-.16-.19-.28-.08-.12-.15-.22-.21-.29h-.05v4.78h-.84Z"/>
      <path d="M151.29,11.94v-6.27h.87v6.27h-.87Z"/>
      <path d="M155.38,11.94l-2.34-6.27h.94l1.61,4.44c.04.09.07.18.11.29.04.11.07.22.11.32.04.1.07.19.1.27h.05c.02-.07.06-.16.09-.26s.07-.21.11-.32c.04-.11.07-.21.11-.31l1.59-4.44h.91l-2.35,6.27h-1.05Z"/>
      <path d="M159.66,11.94v-6.27h4.83v.75h-3.96v1.94h3.56v.75h-3.56v2.08h4.01v.75h-4.88Z"/>
      <path d="M165.84,11.94v-6.27h3.3c.43,0,.78.08,1.07.23.28.16.49.37.64.65.14.28.21.6.21.96,0,.43-.1.8-.29,1.11-.19.31-.46.53-.8.67l1.32,2.65h-.95l-1.22-2.5h-2.39v2.5h-.87ZM166.71,8.7h2.35c.35,0,.62-.11.82-.32.2-.21.3-.51.3-.88,0-.23-.04-.43-.13-.58-.09-.16-.21-.28-.37-.37-.16-.09-.37-.13-.61-.13h-2.35v2.28Z"/>
      <path d="M174.79,12.05c-.34,0-.67-.03-.98-.1-.31-.07-.59-.17-.84-.32s-.44-.34-.58-.58c-.14-.24-.21-.53-.21-.88,0-.03,0-.06,0-.09s0-.06,0-.09h.88s0,.05,0,.09c0,.04,0,.08,0,.1,0,.24.07.45.22.62s.35.3.61.38c.26.08.55.12.88.12.15,0,.3,0,.46-.03s.32-.05.47-.1c.15-.05.28-.11.4-.18.12-.08.21-.17.28-.28.07-.11.1-.25.1-.42,0-.21-.06-.38-.18-.52-.12-.14-.28-.25-.47-.34-.19-.09-.42-.17-.66-.24-.25-.07-.5-.14-.76-.21-.26-.07-.52-.14-.76-.23-.25-.09-.47-.2-.66-.33-.2-.13-.35-.29-.47-.49-.12-.19-.18-.43-.18-.71,0-.26.05-.5.16-.7.11-.21.27-.38.48-.53.21-.14.47-.25.78-.33.31-.08.67-.11,1.07-.11.33,0,.64.03.92.1.28.07.53.18.75.32.22.14.39.33.51.54.12.22.18.48.18.8v.11h-.86v-.14c0-.21-.06-.38-.19-.53s-.3-.26-.53-.34c-.22-.08-.47-.12-.75-.12-.37,0-.67.03-.91.1-.24.07-.43.17-.54.3-.12.13-.18.28-.18.44,0,.19.06.35.18.48.12.13.28.23.47.32.19.08.42.16.67.22.25.07.5.14.76.21s.51.15.76.24c.25.09.47.2.67.33.2.13.35.3.47.49.12.2.17.44.17.73,0,.44-.11.81-.33,1.08-.22.28-.52.48-.9.61s-.83.19-1.33.19Z"/>
      <path d="M178.64,11.94v-6.27h.87v6.27h-.87Z"/>
      <path d="M181.08,11.94v-6.27h2.34c.66,0,1.22.11,1.68.33s.82.56,1.06,1.02c.25.46.37,1.06.37,1.79s-.12,1.31-.37,1.77c-.25.46-.6.81-1.06,1.03-.46.22-1.02.33-1.68.33h-2.34ZM181.95,11.19h1.45c.35,0,.66-.04.93-.13.27-.09.51-.22.7-.41.19-.18.34-.42.44-.71s.15-.64.15-1.04v-.18c0-.41-.05-.77-.15-1.06-.1-.29-.25-.53-.44-.71s-.43-.32-.7-.41c-.27-.09-.59-.13-.94-.13h-1.45v4.77Z"/>
      <path d="M186.95,11.94l2.48-6.27h1.14l2.49,6.27h-.94l-.61-1.55h-3.05l-.6,1.55h-.9ZM188.73,9.65h2.48l-.76-1.97c-.02-.06-.05-.13-.08-.23-.04-.1-.08-.21-.12-.33-.04-.12-.09-.24-.13-.37-.04-.12-.08-.24-.12-.34h-.05c-.04.12-.09.26-.15.42-.06.16-.11.31-.16.46-.05.15-.1.28-.14.38l-.77,1.97Z"/>
      <path d="M193.9,11.94v-6.27h2.34c.66,0,1.22.11,1.68.33s.82.56,1.06,1.02c.25.46.37,1.06.37,1.79s-.12,1.31-.37,1.77c-.25.46-.6.81-1.06,1.03-.46.22-1.02.33-1.68.33h-2.34ZM194.77,11.19h1.45c.35,0,.66-.04.93-.13.27-.09.51-.22.7-.41.19-.18.34-.42.44-.71s.15-.64.15-1.04v-.18c0-.41-.05-.77-.15-1.06-.1-.29-.25-.53-.44-.71s-.43-.32-.7-.41c-.27-.09-.59-.13-.94-.13h-1.45v4.77Z"/>
      <path d="M202.52,11.94v-6.27h2.34c.66,0,1.22.11,1.68.33s.82.56,1.06,1.02c.25.46.37,1.06.37,1.79s-.12,1.31-.37,1.77c-.25.46-.6.81-1.06,1.03-.46.22-1.02.33-1.68.33h-2.34ZM203.39,11.19h1.45c.35,0,.66-.04.93-.13.27-.09.51-.22.7-.41.19-.18.34-.42.44-.71s.15-.64.15-1.04v-.18c0-.41-.05-.77-.15-1.06-.1-.29-.25-.53-.44-.71s-.43-.32-.7-.41c-.27-.09-.59-.13-.94-.13h-1.45v4.77Z"/>
      <path d="M209.23,11.94v-6.27h4.83v.75h-3.96v1.94h3.56v.75h-3.56v2.08h4.01v.75h-4.88Z"/>
    </g>
    <g>
      <path d="M137.89,23.35v-6.27h.87v6.27h-.87Z"/>
      <path d="M140.33,23.35v-6.27h.84l3.04,4.13s.07.09.12.16c.05.07.1.14.15.21.05.07.09.13.12.19h.04v-4.7h.85v6.27h-.8l-3.08-4.2c-.04-.07-.1-.16-.19-.28-.08-.12-.15-.22-.21-.29h-.05v4.78h-.84Z"/>
      <path d="M147.05,23.35v-6.27h.84l3.04,4.13s.07.09.12.16c.05.07.1.14.15.21.05.07.09.13.12.19h.04v-4.7h.85v6.27h-.8l-3.08-4.2c-.04-.07-.1-.16-.19-.28-.08-.12-.15-.22-.21-.29h-.05v4.78h-.84Z"/>
      <path d="M156.59,23.46c-.65,0-1.21-.12-1.68-.36-.47-.24-.83-.6-1.08-1.08s-.38-1.08-.38-1.81.13-1.34.38-1.81.61-.84,1.08-1.07c.47-.24,1.03-.36,1.68-.36s1.21.12,1.68.36c.47.24.83.6,1.08,1.07.25.48.38,1.08.38,1.81s-.13,1.33-.38,1.81c-.25.48-.61.84-1.08,1.08-.47.24-1.03.36-1.68.36ZM156.59,22.71c.34,0,.65-.05.93-.14.28-.09.51-.24.7-.43s.34-.45.44-.75c.1-.3.16-.66.16-1.07v-.19c0-.42-.05-.78-.16-1.08-.1-.3-.25-.55-.44-.75-.19-.2-.43-.34-.7-.43-.28-.09-.59-.14-.93-.14s-.66.05-.93.14-.51.24-.7.43c-.2.2-.34.45-.44.75-.1.3-.15.66-.15,1.08v.19c0,.42.05.77.15,1.07.1.3.25.55.44.75.19.2.43.34.7.43.27.09.58.14.93.14Z"/>
      <path d="M162.51,23.35l-2.34-6.27h.94l1.61,4.44c.04.09.07.18.11.29.04.11.07.22.11.32.04.1.07.19.1.27h.05c.02-.07.06-.16.09-.26s.07-.21.11-.32c.04-.11.07-.21.11-.31l1.59-4.44h.91l-2.35,6.27h-1.05Z"/>
      <path d="M165.81,23.35l2.48-6.27h1.14l2.49,6.27h-.94l-.61-1.55h-3.05l-.6,1.55h-.9ZM167.59,21.06h2.48l-.76-1.97c-.02-.06-.05-.13-.08-.23-.04-.1-.08-.21-.12-.33-.04-.12-.09-.24-.13-.37-.04-.12-.08-.24-.12-.34h-.05c-.04.12-.09.26-.15.42-.06.16-.11.31-.16.46-.05.15-.1.28-.14.38l-.77,1.97Z"/>
      <path d="M175.32,23.46c-.64,0-1.18-.12-1.63-.35-.44-.23-.78-.59-1.02-1.07-.23-.48-.35-1.09-.35-1.82,0-1.09.27-1.9.8-2.44.53-.54,1.27-.8,2.21-.8.54,0,1.01.09,1.43.26.41.17.74.44.97.79s.35.79.35,1.32h-.88c0-.37-.08-.67-.23-.91-.16-.24-.37-.42-.65-.53-.28-.12-.61-.18-.99-.18-.44,0-.82.08-1.13.26-.32.17-.56.43-.72.79-.16.36-.25.81-.25,1.38v.19c0,.55.08,1.01.25,1.36s.4.61.72.77.69.25,1.14.25c.39,0,.73-.06,1.01-.17.28-.12.5-.29.66-.53.16-.24.23-.54.23-.91h.85c0,.54-.12.99-.36,1.33-.24.35-.57.61-.98.78-.41.17-.89.26-1.42.26Z"/>
      <path d="M179.3,23.35v-6.27h.87v6.27h-.87Z"/>
      <path d="M184.55,23.46c-.65,0-1.21-.12-1.68-.36-.47-.24-.83-.6-1.08-1.08s-.38-1.08-.38-1.81.13-1.34.38-1.81.61-.84,1.08-1.07c.47-.24,1.03-.36,1.68-.36s1.21.12,1.68.36c.47.24.83.6,1.08,1.07.25.48.38,1.08.38,1.81s-.13,1.33-.38,1.81c-.25.48-.61.84-1.08,1.08-.47.24-1.03.36-1.68.36ZM184.55,22.71c.34,0,.65-.05.93-.14.28-.09.51-.24.7-.43s.34-.45.44-.75c.1-.3.16-.66.16-1.07v-.19c0-.42-.05-.78-.16-1.08-.1-.3-.25-.55-.44-.75-.19-.2-.43-.34-.7-.43-.28-.09-.59-.14-.93-.14s-.66.05-.93.14-.51.24-.7.43c-.2.2-.34.45-.44.75-.1.3-.15.66-.15,1.08v.19c0,.42.05.77.15,1.07.1.3.25.55.44.75.19.2.43.34.7.43.27.09.58.14.93.14Z"/>
      <path d="M188.94,23.35v-6.27h.84l3.04,4.13s.07.09.12.16c.05.07.1.14.15.21.05.07.09.13.12.19h.04v-4.7h.85v6.27h-.8l-3.08-4.2c-.04-.07-.1-.16-.19-.28-.08-.12-.15-.22-.21-.29h-.05v4.78h-.84Z"/>
      <path d="M195.66,23.35v-6.27h4.83v.75h-3.96v1.94h3.56v.75h-3.56v2.08h4.01v.75h-4.88Z"/>
      <path d="M204.16,23.46c-.34,0-.67-.03-.98-.1-.31-.07-.59-.17-.84-.32s-.44-.34-.58-.58c-.14-.24-.21-.53-.21-.88,0-.03,0-.06,0-.09s0-.06,0-.09h.88s0,.05,0,.09c0,.04,0,.08,0,.1,0,.24.07.45.22.62s.35.3.61.38c.26.08.55.12.88.12.15,0,.3,0,.46-.03s.32-.05.47-.1c.15-.05.28-.11.4-.18.12-.08.21-.17.28-.28.07-.11.1-.25.1-.42,0-.21-.06-.38-.18-.52-.12-.14-.28-.25-.47-.34-.19-.09-.42-.17-.66-.24-.25-.07-.5-.14-.76-.21-.26-.07-.52-.14-.76-.23-.25-.09-.47-.2-.66-.33-.2-.13-.35-.29-.47-.49-.12-.19-.18-.43-.18-.71,0-.26.05-.5.16-.7.11-.21.27-.38.48-.53.21-.14.47-.25.78-.33.31-.08.67-.11,1.07-.11.33,0,.64.03.92.1.28.07.53.18.75.32.22.14.39.33.51.54.12.22.18.48.18.8v.11h-.86v-.14c0-.21-.06-.38-.19-.53s-.3-.26-.53-.34c-.22-.08-.47-.12-.75-.12-.37,0-.67.03-.91.1-.24.07-.43.17-.54.3-.12.13-.18.28-.18.44,0,.19.06.35.18.48.12.13.28.23.47.32.19.08.42.16.67.22.25.07.5.14.76.21s.51.15.76.24c.25.09.47.2.67.33.2.13.35.3.47.49.12.2.17.44.17.73,0,.44-.11.81-.33,1.08-.22.28-.52.48-.9.61s-.83.19-1.33.19Z"/>
    </g>
    <g>
      <path d="M139.42,35.54v-5.51h-2.15v-.76h5.18v.76h-2.17v5.51h-.87Z"/>
      <path d="M143.42,35.54v-6.27h4.83v.75h-3.96v1.94h3.56v.75h-3.56v2.08h4.01v.75h-4.88Z"/>
      <path d="M152.29,35.65c-.64,0-1.18-.12-1.63-.35-.44-.23-.78-.59-1.02-1.07-.23-.48-.35-1.09-.35-1.82,0-1.09.27-1.9.8-2.44.53-.54,1.27-.8,2.21-.8.54,0,1.01.09,1.43.26.41.17.74.44.97.79s.35.79.35,1.32h-.88c0-.37-.08-.67-.23-.91-.16-.24-.37-.42-.65-.53-.28-.12-.61-.18-.99-.18-.44,0-.82.08-1.13.26-.32.17-.56.43-.72.79-.16.36-.25.81-.25,1.38v.19c0,.55.08,1.01.25,1.36s.4.61.72.77.69.25,1.14.25c.39,0,.73-.06,1.01-.17.28-.12.5-.29.66-.53.16-.24.23-.54.23-.91h.85c0,.54-.12.99-.36,1.33-.24.35-.57.61-.98.78-.41.17-.89.26-1.42.26Z"/>
      <path d="M156.26,35.54v-6.27h.84l3.04,4.13s.07.09.12.16c.05.07.1.14.15.21.05.07.09.13.12.19h.04v-4.7h.85v6.27h-.8l-3.08-4.2c-.04-.07-.1-.16-.19-.28-.08-.12-.15-.22-.21-.29h-.05v4.78h-.84Z"/>
      <path d="M165.81,35.65c-.65,0-1.21-.12-1.68-.36-.47-.24-.83-.6-1.08-1.08s-.38-1.08-.38-1.81.13-1.34.38-1.81.61-.84,1.08-1.07c.47-.24,1.03-.36,1.68-.36s1.21.12,1.68.36c.47.24.83.6,1.08,1.07.25.48.38,1.08.38,1.81s-.13,1.33-.38,1.81c-.25.48-.61.84-1.08,1.08-.47.24-1.03.36-1.68.36ZM165.81,34.9c.34,0,.65-.05.93-.14.28-.09.51-.24.7-.43s.34-.45.44-.75c.1-.3.16-.66.16-1.07v-.19c0-.42-.05-.78-.16-1.08-.1-.3-.25-.55-.44-.75-.19-.2-.43-.34-.7-.43-.28-.09-.59-.14-.93-.14s-.66.05-.93.14-.51.24-.7.43c-.2.2-.34.45-.44.75-.1.3-.15.66-.15,1.08v.19c0,.42.05.77.15,1.07.1.3.25.55.44.75.19.2.43.34.7.43.27.09.58.14.93.14Z"/>
      <path d="M170.19,35.54v-6.27h.87v5.51h3.12v.76h-3.98Z"/>
      <path d="M177.63,35.65c-.65,0-1.21-.12-1.68-.36-.47-.24-.83-.6-1.08-1.08s-.38-1.08-.38-1.81.13-1.34.38-1.81.61-.84,1.08-1.07c.47-.24,1.03-.36,1.68-.36s1.21.12,1.68.36c.47.24.83.6,1.08,1.07.25.48.38,1.08.38,1.81s-.13,1.33-.38,1.81c-.25.48-.61.84-1.08,1.08-.47.24-1.03.36-1.68.36ZM177.63,34.9c.34,0,.65-.05.93-.14.28-.09.51-.24.7-.43s.34-.45.44-.75c.1-.3.16-.66.16-1.07v-.19c0-.42-.05-.78-.16-1.08-.1-.3-.25-.55-.44-.75-.19-.2-.43-.34-.7-.43-.28-.09-.59-.14-.93-.14s-.66.05-.93.14-.51.24-.7.43c-.2.2-.34.45-.44.75-.1.3-.15.66-.15,1.08v.19c0,.42.05.77.15,1.07.1.3.25.55.44.75.19.2.43.34.7.43.27.09.58.14.93.14ZM177.24,28.81l.79-1.21h.95v.03s-1,1.18-1,1.18h-.74Z"/>
      <path d="M184.84,35.65c-1.01,0-1.78-.26-2.31-.8-.53-.53-.79-1.35-.79-2.45,0-.72.12-1.32.37-1.8.24-.48.6-.84,1.08-1.08.48-.24,1.05-.36,1.74-.36.43,0,.81.05,1.16.14s.65.23.9.42c.25.19.45.42.58.7.14.28.21.61.21,1h-.89c0-.27-.05-.5-.15-.69s-.24-.35-.42-.47-.39-.21-.63-.26c-.24-.05-.49-.08-.76-.08-.37,0-.69.05-.98.14s-.53.23-.72.43c-.2.2-.34.45-.45.75-.1.3-.16.67-.16,1.09v.19c0,.57.09,1.03.26,1.38s.43.61.75.77c.33.16.72.24,1.19.24s.86-.07,1.16-.2c.3-.13.53-.33.68-.6.15-.27.22-.61.22-1.01v-.11h-2.21v-.74h3.09v3.3h-.66l-.09-.8c-.16.21-.36.39-.58.52-.23.13-.47.23-.74.29-.27.06-.56.09-.86.09Z"/>
      <path d="M189.29,35.54v-6.27h.87v6.27h-.87Z"/>
      <path d="M194.41,35.65c-.64,0-1.18-.12-1.63-.35-.44-.23-.78-.59-1.02-1.07-.23-.48-.35-1.09-.35-1.82,0-1.09.27-1.9.8-2.44.53-.54,1.27-.8,2.21-.8.54,0,1.01.09,1.43.26.41.17.74.44.97.79s.35.79.35,1.32h-.88c0-.37-.08-.67-.23-.91-.16-.24-.37-.42-.65-.53-.28-.12-.61-.18-.99-.18-.44,0-.82.08-1.13.26-.32.17-.56.43-.72.79-.16.36-.25.81-.25,1.38v.19c0,.55.08,1.01.25,1.36s.4.61.72.77.69.25,1.14.25c.39,0,.73-.06,1.01-.17.28-.12.5-.29.66-.53.16-.24.23-.54.23-.91h.85c0,.54-.12.99-.36,1.33-.24.35-.57.61-.98.78-.41.17-.89.26-1.42.26Z"/>
      <path d="M197.67,35.54l2.48-6.27h1.14l2.49,6.27h-.94l-.61-1.55h-3.05l-.6,1.55h-.9ZM199.45,33.24h2.48l-.76-1.97c-.02-.06-.05-.13-.08-.23-.04-.1-.08-.21-.12-.33-.04-.12-.09-.24-.13-.37-.04-.12-.08-.24-.12-.34h-.05c-.04.12-.09.26-.15.42-.06.16-.11.31-.16.46-.05.15-.1.28-.14.38l-.77,1.97Z"/>
      <path d="M206.92,35.65c-.34,0-.67-.03-.98-.1-.31-.07-.59-.17-.84-.32s-.44-.34-.58-.58c-.14-.24-.21-.53-.21-.88,0-.03,0-.06,0-.09s0-.06,0-.09h.88s0,.05,0,.09c0,.04,0,.08,0,.1,0,.24.07.45.22.62s.35.3.61.38c.26.08.55.12.88.12.15,0,.3,0,.46-.03s.32-.05.47-.1c.15-.05.28-.11.4-.18.12-.08.21-.17.28-.28.07-.11.1-.25.1-.42,0-.21-.06-.38-.18-.52-.12-.14-.28-.25-.47-.34-.19-.09-.42-.17-.66-.24-.25-.07-.5-.14-.76-.21-.26-.07-.52-.14-.76-.23-.25-.09-.47-.2-.66-.33-.2-.13-.35-.29-.47-.49-.12-.19-.18-.43-.18-.71,0-.26.05-.5.16-.7.11-.21.27-.38.48-.53.21-.14.47-.25.78-.33.31-.08.67-.11,1.07-.11.33,0,.64.03.92.1.28.07.53.18.75.32.22.14.39.33.51.54.12.22.18.48.18.8v.11h-.86v-.14c0-.21-.06-.38-.19-.53s-.3-.26-.53-.34c-.22-.08-.47-.12-.75-.12-.37,0-.67.03-.91.1-.24.07-.43.17-.54.3-.12.13-.18.28-.18.44,0,.19.06.35.18.48.12.13.28.23.47.32.19.08.42.16.67.22.25.07.5.14.76.21s.51.15.76.24c.25.09.47.2.67.33.2.13.35.3.47.49.12.2.17.44.17.73,0,.44-.11.81-.33,1.08-.22.28-.52.48-.9.61s-.83.19-1.33.19Z"/>
    </g>
  </g>
  <rect x="122.34" y=".65" width=".38" height="39.91"/>
</svg>