<?xml version="1.0" encoding="UTF-8"?>
<svg id="Capa_1" data-name="Capa 1" xmlns="http://www.w3.org/2000/svg" viewBox="0 0 82.78 82.78">
  <path d="M14.9,20.45l24.34,12.97c3.54,1.12,6.83-1.19,9.75-2.88.27-.16.53.09.4-.54l-9.12-10.42c-.81-1.72.96-2.86,2.24-1.6l9.65,10.86c1.95-1.36,15.63-7.63,15.99-8.91.35-1.21.31-2.38-.84-3.05l-16.01-8.65c-1.45-.99.15-2.92,1.52-2.17l16.27,8.73c1.99,1.52,2.4,3.73,1.76,6.08,3.83-.46,7.33.63,8.25,4.72l.07,43.97c1.41,0,3.02-.29,3.22,1.42.72,6.06-1.89,10.27-8.17,10.76H8.55c-6.28-.49-8.9-4.68-8.17-10.76.2-1.71,1.81-1.42,3.22-1.42V26.46c.4-4.67,4.1-6.11,8.32-5.59-.69-2.58-.13-4.81,2.14-6.35,7.87-3.16,16.57-10.11,24.36-12.79.72-.25,2.14-.66,2.84-.68,1.58-.03,8.37,2.39,7.99,4.16-.63,2.95-4.68-.8-6.24-1.17-1.18-.28-2.58-.25-3.72.17l-23.82,12.69c-1.3.75-1.25,2.37-.57,3.57ZM6.15,26.15v43.4h70.47V26.15c0-3.28-6.76-3.04-8.88-2.47l-4.89,2.63h9.77c.41,0,1.37,1.81,1.14,2.39-.75,11.52.95,24.2,0,35.58-.04.44-.31,2.39-.81,2.39H21.05c-.84,0-.84-2.56,0-2.56h49.81V29.19h-10.57v6.57c0,1.92-2.65,5.53-4.19,6.7-.67.51-2.97,1.55-3.13,2-.93,2.75,4.73,6.03,2.47,9.83-2.13,3.56-9.3,1.99-7.74-3.26.31-1.04,3.34-5.13,2.66-5.82-6.9,1.62-14.71,1.68-21.25-1.33-2.4-1.11-6.61-5.04-6.61-7.8v-6.89h-10.57v34.91h5.61c.84,0,.84,2.56,0,2.56h-7.69c-.5,0-.78-1.95-.81-2.39-.96-11.38.75-24.06,0-35.58-.23-.58.72-2.39,1.14-2.39h9.77l-4.89-2.63c-2.62-.41-8.24-1.1-8.88,2.47ZM50.36,33.04c-4.98,2.01-7.24,4.99-12.93,2.52l-12.37-6.69v6.25c0,.44,1.01,2.65,1.33,3.15,3.96,6.08,17.74,6.25,23.97,4.06v-9.29ZM52.92,41.04c1.9-.18,4.8-4.31,4.8-5.93v-6.25l-4.8,2.72v9.45ZM31.46,72.43H2.95c-.43,3.1,1.37,6.11,4.63,6.42h67.93c3.07-.58,4.74-3.4,4.32-6.42h-28.51c-.07,0-.19.97-.4,1.35-.76,1.39-1.9,2.5-3.5,2.91-1.81.47-10.57.45-12.29-.08-1.4-.44-2.42-1.38-3.15-2.62-.26-.44-.45-1.52-.52-1.57ZM48.43,72.43h-14.09c-.04,1,1.59,1.77,2.42,1.9,1.77.27,6.77.22,8.64.04,1.13-.11,2.88-.58,3.03-1.94Z"/>
  <path d="M15.52,60.83c-1.32-1.3.16-2.37,1.67-2.5,7.27-.62,15.39.49,22.76,0,2.3.05,2.67,2.58.33,2.9-7.47-.51-15.72.63-23.09,0-.5-.04-1.31-.05-1.67-.41Z"/>
  <path d="M33.22,53.54c.99.31.88,2.56-.32,2.56H15.92c-.74,0-1.08-2.56,0-2.56h17.3Z"/>
</svg>