<?xml version="1.0" encoding="UTF-8"?>
<svg id="Capa_1" data-name="Capa 1" xmlns="http://www.w3.org/2000/svg" viewBox="0 0 82.78 82.78">
  <polygon points="57.86 67.47 57.86 67.47 57.86 67.47 57.86 67.47"/>
  <path d="M81.03,43.16c.32-1.11.31-7.72,0-8.95-.33-1.26-2.34-2.61-3.51-2.61H27.94c-.14,0-.26-.12-.26-.26V14.29c0-.25.7-.82.78-.86.03-.02.07-.03.11-.03h25.64s.08,0,.12.03c.63.35.7.87.77,1.42.12.91.06,3.05,0,5.32-.08,3.27-.21,8.21.3,8.72.38.38.86.5,1.35.34.63-.21,1.12-.81,1.25-1.55.39-2.4.26-9.72.02-12.44-.27-3.18-1.74-4.65-4.92-4.92-4.06-.35-8.48-.19-12.74-.03-3.76.14-7.63.28-11.31.08-2.1.14-4,1.88-4.29,3.95v17.02c0,.14-.12.26-.26.26H5.26c-1.17,0-3.18,1.35-3.51,2.61-.32,1.23-.32,7.85,0,8.95.51,1.77,2.75,2.35,3.43,2.48.12.02.21.13.21.26l.05,29.93c.28,1.4,1.51,2.12,2.49,2.47,2.3.82,5.58.49,7.03-.72.33-.27,1.11-1.24,1.15-1.4v-27.19c0-.16-.21-.28-.33-.33-.25-.11-.6-.17-.97-.17-.71,0-1.3.23-1.3.5v25.96c0,.08-.02.22-.19.35-.68.54-4.09.51-4.61.38-.33-.08-.73-.84-.73-1.05v-28.93c0-.14.12-.26.26-.26h21.27c.14,0,.26.12.26.26v3.13c0,.07-.03.14-.08.19-.04.04-.12.09-.2.07h-.23c-2.63-.12-6.2-.27-6.67,2.77-.18,1.14-.18,4.96.05,6.07.25,1.2,1.06,1.83,2.3,2.44.08.04.14.12.14.21.19,2.13.07,4.51-.04,6.82v.05c-.13,2.66-.27,5.39.05,7.75.15,1.12.62,1.99,1.39,2.57,1.34,1.01,3.28.99,4.67.8,1.1-.15,3.4-1.53,3.4-2.37v-15.48c0-.14.12-.26.26-.26h19.7c.14,0,.26.12.26.26v14.7c0,.07-.03.14-.08.19-.06.06-.14.07-.18.07-.16,0-.44,0-.7,0-1.32.04-2.44.03-2.84-.36-.11-.11-.17-.24-.17-.38v-11.57c0-.32-.58-.47-1.11-.47-.88,0-1.49.3-1.49.47v12.82c0,.84,2.3,2.22,3.4,2.37,1.39.2,3.33.22,4.67-.8.77-.58,1.24-1.45,1.39-2.57.32-2.35.19-5.09.06-7.74v-.04c-.11-2.31-.23-4.7-.05-6.83,0-.09.06-.17.15-.21,1.24-.62,2.06-1.24,2.3-2.44.22-1.09.23-5.02.05-6.07-.51-3.08-4.3-2.89-6.8-2.77h-.1s-.11,0-.19-.06c-.06-.05-.09-.12-.09-.19v-3.13c0-.14.12-.26.26-.26h12.51c.14,0,.26.12.26.26v30.49c.04.13.82,1.11,1.14,1.37,0,0,0,0,0,0,1.45,1.2,4.73,1.54,7.03.72.98-.35,2.21-1.08,2.49-2.52l.07-30.06c0-.08.04-.15.1-.2.06-.05.13-.06.21-.06,1.57.31,3.52-.83,3.94-2.3ZM31.64,75.44c0,.14-.12.26-.26.26h-3.13c-.14,0-.26-.12-.26-.26v-14.7c0-.14.12-.26.26-.26h3.13c.14,0,.26.12.26.26v14.7ZM57.03,52.03c.14,0,.26.12.26.26v5.32c0,.14-.12.26-.26.26h-31.28c-.14,0-.26-.12-.26-.26v-5.32c0-.14.12-.26.26-.26h31.28ZM32.37,48.85v-3.13c0-.14.12-.26.26-.26h17.51c.14,0,.26.12.26.26v3.13c0,.14-.12.26-.26.26h-17.51c-.14,0-.26-.12-.26-.26ZM74.18,75.46c0,.14-.12.26-.26.26h-5c-.14,0-.26-.12-.26-.26v-29.73c0-.14.12-.26.26-.26h5c.14,0,.26.12.26.26v29.73ZM4.46,42.86c-.14,0-.26-.12-.26-.26v-7.82c0-.14.12-.26.26-.26h73.85c.14,0,.26.12.26.26v7.82c0,.14-.12.26-.26.26H4.46Z"/>
</svg>