<?xml version="1.0" encoding="UTF-8"?>
<svg id="Capa_1" data-name="Capa 1" xmlns="http://www.w3.org/2000/svg" viewBox="0 0 82.78 82.78">
  <path d="M8.68,62.48v7.55h31.13c-1.52-11.4-14.68-6.17-22.11-7.62-1.72-.34-1.23-2.34.32-2.69,7.67.39,16.6-2.14,22.23,4.36.51.59.81,2.08,1.47,1.35.22-.24.43-.94.79-1.35,1.69-1.91,3.63-3.3,6.15-3.91,4.27-1.04,20.88-1.05,25.58-.52.87.1,2.67.72,2.67,1.73v8.65c0,.27,4.04-.91,4.65,1.8.23,1.05.24,7,0,8.04-.26,1.12-1.2,1.53-2.28,1.5l-76.41-.03c-1.02-.16-1.57-.7-1.73-1.73s-.2-7.27.05-8.09c.64-2.2,4.65-1.22,4.65-1.48v-8.65c0-2.23,7.03-2.14,7.72-1.11,1.74,2.59-3.56,2.38-4.89,2.22ZM74.09,62.48h-24.37c-.17,0-2.3.92-2.65,1.12-2.18,1.24-4.13,3.87-4.11,6.43h31.13v-7.55ZM79.12,72.86H3.65v5.97h75.47v-5.97Z"/>
  <g>
    <path d="M56.88,20.74c1.33-1.25,2.95.95,1.8,2.43.34.26,3.62-1.31,3.76-1.77-.08-.96-.88-1.5-1.3-2.42-.67-1.47-2.06-7.25.78-6.46,1.14.32.85,3.29,1.33,4.67.31.88.97,1.78,1.56,2.5.6.05,6.45-5.67,7.24-6.58.38-.43,2.16-2.52,2.23-2.82.13-.51-1.08-1.19-1.48-1.4-1.89-.96-3.63-1.07-5.62-.34-.82.3-4.65,3.37-4.4.3.2-2.36,5.79-3.44,7.7-3.3s5.32,2.26,5.62,2.19c.43-.1,1.86-3.08,1.76-3.75-.16-.17-2.58,1.52-3.02-.3-.6-2.49,5.52-3.5,5.85-.15.25,2.56-2.78,5.55-2.81,6.57-.02.62,1.21,3.05,1.25,4.42.17,5.07-4.27,9.75-9.33,9.86-1.68.04-4.14-1.31-4.96-1.24-1.11.1-3.98,2.91-6.28,2.82-2.77-.11-3.12-3.88-1.68-5.24ZM75.82,12.8c-1.88,2-3.65,4.09-5.65,5.98-.7.67-1.58,1.07-2.21,1.88-.22.28-.74.47-.16.79.73.41,2.84.15,3.72-.06,3.37-.81,6.09-5.38,4.3-8.58Z"/>
    <path d="M71.18,40.56c.51.52.95,2.36,1.65,3.13.99,1.1,3.51,1.44,3.97,3.06.62,2.21-2.69,2.56-3.82,3.76-1.2,1.28-1.4,4.19-3.74,3.79-1.48-.25-2.05-2.99-3.02-3.92-1.11-1.05-3.96-1.35-3.76-3.44.18-1.88,3-2.1,4-3.1.85-.86,1.11-4,3.07-3.98.31,0,1.43.48,1.65.69ZM70,43.61c-.59-.54-1.45,1.93-1.9,2.34-.56.51-1.66.6-2.19,1.27,1.74.69,3.11,1.64,3.46,3.61,1.28-1.68,1.7-2.72,3.77-3.62.26-.53-1.67-.99-2.21-1.56-.46-.5-.79-1.38-.94-2.05Z"/>
    <g>
      <path d="M26.83,15.85c-.59.72-2.76,1.25-3.53,1.97-1.24,1.16-1.55,4.42-3.72,4.31-1.97-.1-2.3-3.2-3.5-4.31-1.39-1.29-4.38-1.12-3.94-3.91.23-1.44,2.89-1.96,3.95-2.99,1.37-1.35,1.63-4.51,4.06-4.1,1.43.24,2.14,3.2,3.3,4.26s5.59,2.07,3.38,4.77ZM20,10.28c-.73-.16-.5.1-.7.4-.42.64-.6,1.71-1.2,2.25-.63.57-1.96.69-2.5,1.59,1.74.75,3.34,1.96,3.78,3.93.39.05.4.11.65-.2,1.09-1.4,1.32-3.13,3.75-3.58-1.48-1.58-3.44-1.73-3.78-4.4Z"/>
      <path d="M14.57,38.96c.39-.12.77-.1,1.16-.05,1.2.16,5.02,4.03,5.13,5.23.12,1.27-4.29,5.72-5.41,5.74-1.46.03-5.48-4.03-5.54-5.48-.02-.57.05-.79.32-1.27.2-.34,4.04-4.08,4.33-4.17ZM15.45,41.71l-2.7,2.7,2.54,2.53,2.7-2.7-2.54-2.53Z"/>
      <g>
        <path d="M57.02,47.61c-1.13.91-5.6.12-5.89.41-.19.19.65,3.72-2.11,4.34-4.62-.28-10.22.61-14.72.07-3.34-.4-2.57-3.98-2.98-4.41s-5.78.92-6.15-1.24c.25-3.16-.87-9.52,0-12.3.4-1.3,4.77-3.37,6.1-4.12.08-3.03.08-6.2,1.16-9.07.83-2.22,5.24-9.23,6.81-11.11,1.38-1.65,2.42-2.13,4.03-.37,2.09,2.28,7.48,11.51,7.83,14.5.15,1.27-.25,5.08.19,5.79.64,1.04,5.79,2.72,6.31,4.38.36,1.16.35,9.98.15,11.51-.06.48-.38,1.34-.73,1.62ZM37.3,18.14h8.18c-1.33-1.89-2.43-3.95-3.7-5.88-.12-.18.05-.6-.54-.41-.35.11-3.24,5.58-3.93,6.29ZM27.55,35.44c-.27.43,0,8.68,0,10.06h3.78c.2-.2-.39-4.03.47-5.03.67-.78,2.36-.04,2.36.47v8.49s.44.47.47.47h13.52s.47-.44.47-.47v-24.84c0-.35-1.19-3.56-1.47-3.63l-11.69.06c-2.32,4.41-.89,9.54-1.3,14.27-.36,4.17-3.86.95-2.85-2.06-.44.53-3.66,2.02-3.77,2.2ZM55.22,35.44l-4.09-2.2v12.26h4.09v-10.06Z"/>
        <path d="M46.23,29.57c0,2.68-2.17,4.86-4.86,4.86s-4.86-2.17-4.86-4.86,2.17-4.86,4.86-4.86,4.86,2.17,4.86,4.86ZM43.6,29.54c0-1.23-1-2.22-2.22-2.22s-2.22,1-2.22,2.22,1,2.22,2.22,2.22,2.22-1,2.22-2.22Z"/>
      </g>
    </g>
  </g>
</svg>