<?xml version="1.0" encoding="UTF-8"?>
<svg id="Capa_1" data-name="Capa 1" xmlns="http://www.w3.org/2000/svg" viewBox="0 0 40 40">
  <circle cx="38.55" cy="21.97" r=".81"/>
  <path d="M35.29,4.69c.77-.14,1.25.54.92,1.23-.14.28-2.93,3.07-3.2,3.19s-.43.17-.72.04c-.12-.06-1.85-1.78-1.9-1.9-.35-.74.59-1.3,1.29-.98.27.12.66.87.97.82.38-.07,1.94-2.27,2.64-2.39Z"/>
  <g>
    <path d="M37.94,19.21c-.13-.13-.48-2.98-.62-3.55-.27-1.11-.76-2.15-1.08-3.24-5.84,2.55-11.19-2.81-8.65-8.65-1.17-.36-2.29-.87-3.49-1.14-4.89-1.12-9.9-.15-14.1,2.52,1.08,2.86-.77,5.48-3.87,5.13-.25-.03-.88-.35-.98-.28-.28.2-1.61,3.07-1.8,3.59-1.75,4.65-1.49,9.46.42,14,5.84-2.55,11.19,2.81,8.65,8.65,1.02.29,1.98.75,3,1.02,3.98,1.04,8.33.65,12.08-1.04.32-.15,2.43-1.25,2.51-1.36.07-.1-.25-.72-.28-.98-.24-2.26,1.33-4.31,3.7-4.16.35.02,1.24.39,1.42.29.13-.07,1.26-2.27,1.42-2.61.33-.72.79-3.04,1.7-2.95,1.44.13.24,2.63-.07,3.36-.29.68-1.72,2.9-1.78,3.24-.06.37.5,1.11.57,1.65.3,2.18-1.41,4.31-3.68,4.15-.59-.04-1.86-.73-1.97-.72-.17.02-2.42,1.39-2.93,1.62-5.27,2.36-11.49,2.33-16.67-.24-6.3,5.94-14.86-2.61-8.92-8.92C-.01,23.54-.09,17.38,2.11,12.21c.25-.58,1.75-3.05,1.77-3.23.02-.26-.49-1.02-.56-1.51-.35-2.5,1.5-4.43,4.01-4.16.55.06,1.4.6,1.65.58.18-.02,2.65-1.52,3.23-1.77C17.38-.1,23.54-.02,28.58,2.5c6.29-5.94,14.87,2.63,8.92,8.92.82,1.65,1.45,3.53,1.74,5.36.09.6.52,2.37-.22,2.58-.27.08-.87.03-1.07-.16ZM37.83,6.79c0-2.56-2.07-4.63-4.63-4.63s-4.63,2.07-4.63,4.63,2.07,4.63,4.63,4.63,4.63-2.07,4.63-4.63ZM8.68,6.79c0-1.04-.84-1.88-1.88-1.88s-1.88.84-1.88,1.88.84,1.88,1.88,1.88,1.88-.84,1.88-1.88ZM11.43,33.21c0-2.56-2.07-4.64-4.63-4.64s-4.63,2.08-4.63,4.64,2.07,4.64,4.63,4.64,4.63-2.08,4.63-4.64ZM35.07,33.28c0-1.03-.84-1.87-1.87-1.87s-1.87.84-1.87,1.87.84,1.87,1.87,1.87,1.87-.84,1.87-1.87Z"/>
    <path d="M8.73,31.26c.77-.14,1.25.54.92,1.23-.14.28-2.93,3.08-3.2,3.19-.94.41-2.96-1.7-2.62-2.46.63-1.41,2.04.48,2.26.44.38-.07,1.94-2.27,2.64-2.39Z"/>
  </g>
  <g>
    <path d="M18.45,9.27c1.47-.19,4.32-.33,5.07,1.21.35.73.06,2.35.68,2.52.75.2,1.87-1.42,3.52-.5.64.36,2.49,3.53,2.58,4.25.12.98-.29,1.68-1.06,2.25-.47.35-1.55.51-.98,1.45.28.46,1.92.63,2.06,2.2.09.96-1.05,2.89-1.61,3.71-.72,1.04-1.31,1.6-2.68,1.34-.59-.11-1.91-1.34-2.2-.31-.21.72.12,1.45-.42,2.32-.8,1.3-3.33,1.19-4.7,1.07-1.48-.13-2.24-.73-2.49-2.21-.08-.46.19-1.39-.43-1.56-.8-.22-1.83,1.5-3.58.41-.66-.41-2.43-3.42-2.52-4.16-.12-.98.29-1.68,1.06-2.25.47-.35,1.55-.51.98-1.45-.28-.46-1.92-.63-2.06-2.2-.09-.97,1.05-2.87,1.61-3.71.73-1.08,1.26-1.6,2.68-1.34.64.12,1.33.95,1.93.65.48-.24.24-1.05.32-1.51.23-1.35.87-2,2.23-2.17ZM21.94,11.08c-.29-.29-3.44-.28-3.81-.05-.41.26-.19,1.52-.29,2.03-.19.97-1.37,1.66-2.32,1.64s-1.74-.97-2.4-.75c-.19.06-1.76,2.81-1.77,3.11-.04.6,1.15.91,1.6,1.42.92,1.06.68,2.57-.39,3.41-.32.25-1.17.5-1.21.92-.03.34,1.56,3.17,1.78,3.24.88.3,1.91-1.49,3.75-.41,1.57.92.69,2.77,1.2,3.28.28.28,3.44.28,3.81.05.41-.26.19-1.43.26-1.9.18-1.17,1.51-1.89,2.63-1.74.71.09,1.6,1.06,2.22.67.14-.09,1.64-2.73,1.67-2.9.12-.77-.73-.84-1.2-1.21-1.24-.97-1.3-2.69-.09-3.71.59-.49,1.58-.49,1.21-1.51-.1-.26-1.54-2.67-1.69-2.72-.63-.21-1.13.43-1.64.6-.9.31-1.83.14-2.52-.53-1.01-1-.33-2.47-.79-2.93Z"/>
    <path d="M24.13,20c0,2.28-1.85,4.13-4.13,4.13s-4.13-1.85-4.13-4.13,1.85-4.13,4.13-4.13,4.13,1.85,4.13,4.13ZM22.45,20c0-1.35-1.1-2.45-2.45-2.45s-2.45,1.1-2.45,2.45,1.1,2.45,2.45,2.45,2.45-1.1,2.45-2.45Z"/>
  </g>
</svg>